<?xml version="1.0" standalone="no"?><!DOCTYPE svg PUBLIC "-//W3C//DTD SVG 1.1//EN" "http://www.w3.org/Graphics/SVG/1.1/DTD/svg11.dtd"><svg t="1598430650252" class="icon" viewBox="0 0 2369 1024" version="1.1" xmlns="http://www.w3.org/2000/svg" p-id="22429" xmlns:xlink="http://www.w3.org/1999/xlink" width="462.6953125" height="200"><defs><style type="text/css"></style></defs><path d="M502.875772 1085.982416l-361.300911 11.09798 628.885545-3.699327z" fill="#7F8494" p-id="22430"></path><path d="M756.896208 94.562851l247.854891 3.699327 240.456237-14.797307z" fill="#B8E1C5" p-id="22431"></path><path d="M137.875534 82.231762l619.020674 12.331089 488.311128-11.09798z" fill="#D2EDC1" p-id="22432"></path><path d="M770.460406 1093.381069l-628.885545 3.699327 1119.662891 20.962852z" fill="#677B93" p-id="22433"></path><path d="M141.574861 1097.080396l-143.040634 4.932436 1262.703525 16.030416z" fill="#7E8391" p-id="22434"></path><path d="M137.875534 82.231762l1107.331802 1.233109 245.388674-2.466218z" fill="#BBE2C6" p-id="22435"></path><path d="M1245.207336 83.464871l125.777109 1.233109 119.611565-3.699327z" fill="#A6CEC8" p-id="22436"></path><path d="M1490.59601 80.998653l156.604831 14.797307 239.223129-3.699326z" fill="#9FB6C1" p-id="22437"></path><path d="M1886.42397 92.096634l92.483168 20.962851 129.476436-3.699327z" fill="#9B9BB4" p-id="22438"></path><path d="M2006.035534 1100.779723l-235.523802 7.398653 474.746931-2.466218z" fill="#1C3484" p-id="22439"></path><path d="M2114.549118 1081.04998l-108.513584 19.729743 239.223129 4.932435z" fill="#1D2D82" p-id="22440"></path><path d="M1886.42397 92.096634l221.959604 17.263524 249.088 6.165545z" fill="#9A92B0" p-id="22441"></path><path d="M2108.383574 109.360158l154.138614 13.564198 94.949386-7.398653z" fill="#928CA2" p-id="22442"></path><path d="M2353.772247 827.029545l-88.783841 19.729742 93.716277 144.273743z" fill="#1C3F88" p-id="22443"></path><path d="M2240.326227 341.184634l17.263525 147.973069 115.912238-16.030416z" fill="#5B7897" p-id="22444"></path><path d="M2373.50199 473.127287l-97.415604 109.746693 110.979802 3.699327z" fill="#3F6D94" p-id="22445"></path><path d="M2276.086386 582.87398l80.152079 109.746693 30.827723-106.047366z" fill="#306795" p-id="22446"></path><path d="M2356.238465 692.620673l-2.466218 134.408872 33.293941-240.456238z" fill="#235C91" p-id="22447"></path><path d="M2240.326227 341.184634l133.175763 131.942653 23.429069-96.182495z" fill="#637992" p-id="22448"></path><path d="M2373.50199 214.174416L2240.326227 341.184634l156.604832 35.760158z" fill="#778091" p-id="22449"></path><path d="M2373.50199 473.127287l13.564198 113.44602 9.864871-209.628515z" fill="#4B708E" p-id="22450"></path><path d="M2245.258663 1105.712158l-474.746931 2.466218 626.419327 4.932436z" fill="#1B2B7D" p-id="22451"></path><path d="M1770.511732 1108.178376l-367.466455 8.631763 993.885782-3.699327z" fill="#1C3D86" p-id="22452"></path><path d="M2358.704683 991.03303l-113.44602 114.679128 151.672396 7.398654z" fill="#152772" p-id="22453"></path><path d="M2387.066188 586.573307l-33.293941 240.456238 43.158812 286.081267z" fill="#1A4487" p-id="22454"></path><path d="M2353.772247 827.029545l4.932436 164.003485 38.226376 122.077782z" fill="#1A307E" p-id="22455"></path><path d="M2396.931059 376.944792l-9.864871 209.628515 9.864871 526.537505z" fill="#245C8F" p-id="22456"></path><path d="M2225.52892 722.215287l128.243327 104.814258 2.466218-134.408872z" fill="#215896" p-id="22457"></path><path d="M2256.356643 991.03303l-11.09798 114.679128 113.44602-114.679128z" fill="#1C2C80" p-id="22458"></path><path d="M2264.988406 846.759287l-8.631763 144.273743h102.34804z" fill="#1E3888" p-id="22459"></path><path d="M2218.130267 217.873743l22.19596 123.310891 133.175763-127.010218z" fill="#828596" p-id="22460"></path><path d="M2257.589752 489.157703l18.496634 93.716277 97.415604-109.746693z" fill="#487198" p-id="22461"></path><path d="M137.875534 82.231762l229.358258 28.361505 389.662416-16.030416z" fill="#EAF7BE" p-id="22462"></path><path d="M2225.52892 722.215287l39.459486 124.544 88.783841-19.729742z" fill="#215095" p-id="22463"></path><path d="M2357.471574 115.525703l-94.949386 7.398653 110.979802 91.25006z" fill="#8B8794" p-id="22464"></path><path d="M2262.522188 122.924356l-44.391921 94.949387 155.371723-3.699327z" fill="#8C8895" p-id="22465"></path><path d="M2276.086386 582.87398l-50.557466 139.341307 130.709545-29.594614z" fill="#2D649B" p-id="22466"></path><path d="M2112.082901 859.090376l-16.030416 104.814258 160.304158 27.128396z" fill="#253F96" p-id="22467"></path><path d="M2134.278861 465.728634l-20.962851 140.574416 144.273742-117.145347z" fill="#4F77A6" p-id="22468"></path><path d="M2240.326227 341.184634l-106.047366 124.544 123.310891 23.429069z" fill="#617C9F" p-id="22469"></path><path d="M2112.082901 859.090376l144.273742 131.942654 8.631763-144.273743z" fill="#224293" p-id="22470"></path><path d="M2257.589752 489.157703l-144.273742 117.145347 162.770376-23.42907z" fill="#4372A2" p-id="22471"></path><path d="M2113.31601 606.30305l112.21291 115.912237 50.557466-139.341307z" fill="#356BA4" p-id="22472"></path><path d="M2114.549118 1081.04998l130.709545 24.662178 11.09798-114.679128z" fill="#1D2D81" p-id="22473"></path><path d="M2108.383574 109.360158l109.746693 108.513585 44.391921-94.949387z" fill="#938DA2" p-id="22474"></path><path d="M2225.52892 722.215287l-113.446019 136.875089 152.905505-12.331089z" fill="#25529B" p-id="22475"></path><path d="M2218.130267 217.873743l-92.483168 103.581148 114.679128 19.729743z" fill="#82889F" p-id="22476"></path><path d="M2113.31601 606.30305l7.398653 104.814257 104.814257 11.09798z" fill="#3268A8" p-id="22477"></path><path d="M2096.052485 963.904634l18.496633 117.145346 141.807525-90.01695z" fill="#233390" p-id="22478"></path><path d="M2125.647099 321.454891l8.631762 144.273743 106.047366-124.544z" fill="#7283A3" p-id="22479"></path><path d="M2108.383574 109.360158l22.19596 107.280476 87.550733 1.233109z" fill="#958FA3" p-id="22480"></path><path d="M2120.714663 711.117307l-8.631762 147.973069 113.446019-136.875089z" fill="#295CA4" p-id="22481"></path><path d="M2130.579534 216.640634l-4.932435 104.814257 92.483168-103.581148z" fill="#8B8BA3" p-id="22482"></path><path d="M1038.045039 1081.04998l-267.584633 12.331089 490.777346 24.662179z" fill="#477197" p-id="22483"></path><path d="M2024.532168 468.194851l-6.165545 150.439288 94.949387-12.331089z" fill="#467BAE" p-id="22484"></path><path d="M2096.052485 963.904634l-86.317624 9.864871 104.814257 107.280475z" fill="#263996" p-id="22485"></path><path d="M2008.501752 834.428198l103.581149 24.662178 8.631762-147.973069z" fill="#2959A6" p-id="22486"></path><path d="M2001.103099 724.681505l7.398653 109.746693 112.212911-123.310891z" fill="#2A64AB" p-id="22487"></path><path d="M2113.31601 606.30305l-94.949387 12.331089 102.34804 92.483168z" fill="#3970AD" p-id="22488"></path><path d="M2025.765277 251.167683l99.881822 70.287208 4.932435-104.814257z" fill="#8C8EA7" p-id="22489"></path><path d="M2108.383574 109.360158l-82.618297 141.807525 104.814257-34.527049z" fill="#9692A7" p-id="22490"></path><path d="M2024.532168 468.194851l88.783842 138.108199 20.962851-140.574416z" fill="#537CAB" p-id="22491"></path><path d="M2125.647099 321.454891l-113.44602 24.662178 122.077782 119.611565z" fill="#7587A9" p-id="22492"></path><path d="M2012.201079 346.117069l12.331089 122.077782 109.746693-2.466217z" fill="#6785AB" p-id="22493"></path><path d="M1978.907138 113.059485l46.858139 138.108198 82.618297-141.807525z" fill="#9997AC" p-id="22494"></path><path d="M1869.160445 1073.651327l-98.648713 34.527049 235.523802-7.398653z" fill="#1D3D8A" p-id="22495"></path><path d="M2009.734861 973.769505l-3.699327 127.010218 108.513584-19.729743z" fill="#22368E" p-id="22496"></path><path d="M2018.366623 618.634139l-17.263524 106.047366 119.611564-13.564198z" fill="#326EAE" p-id="22497"></path><path d="M2025.765277 251.167683l-13.564198 94.949386 113.44602-24.662178z" fill="#8590A9" p-id="22498"></path><path d="M2008.501752 834.428198l1.233109 139.341307 86.317624-9.864871z" fill="#26489E" p-id="22499"></path><path d="M2008.501752 834.428198l87.550733 129.476436 16.030416-104.814258z" fill="#264B9F" p-id="22500"></path><path d="M2001.103099 724.681505l-99.881822 115.912238 107.280475-6.165545z" fill="#2761AA" p-id="22501"></path><path d="M1869.160445 1073.651327l136.875089 27.128396 3.699327-127.010218z" fill="#223C91" p-id="22502"></path><path d="M1879.025316 977.468832l-9.864871 96.182495 140.574416-99.881822z" fill="#26439B" p-id="22503"></path><path d="M2008.501752 834.428198l-107.280475 6.165545 108.513584 133.175762z" fill="#2553A3" p-id="22504"></path><path d="M1901.221277 840.593743l-22.195961 136.875089 130.709545-3.699327z" fill="#264EA0" p-id="22505"></path><path d="M1853.130029 257.333228l29.594614 112.212911 129.476436-23.42907z" fill="#8298AD" p-id="22506"></path><path d="M1904.920604 712.350416l96.182495 12.331089 17.263524-106.047366z" fill="#3172B0" p-id="22507"></path><path d="M1866.694227 486.691485l38.226377 88.783842 119.611564-107.280476z" fill="#5187B0" p-id="22508"></path><path d="M2012.201079 346.117069l-129.476436 23.42907 141.807525 98.648712z" fill="#708EAD" p-id="22509"></path><path d="M1882.724643 369.546139l-16.030416 117.145346 157.837941-18.496634z" fill="#628DAF" p-id="22510"></path><path d="M1904.920604 575.475327l113.446019 43.158812 6.165545-150.439288z" fill="#4880B0" p-id="22511"></path><path d="M1853.130029 257.333228l159.07105 88.783841 13.564198-94.949386z" fill="#8997AB" p-id="22512"></path><path d="M1978.907138 113.059485L1853.130029 257.333228l172.635248-6.165545z" fill="#949BAC" p-id="22513"></path><path d="M1637.33597 1072.418218l-234.290693 44.391921 367.466455-8.631763z" fill="#205292" p-id="22514"></path><path d="M1904.920604 712.350416l-3.699327 128.243327 99.881822-115.912238z" fill="#276BAE" p-id="22515"></path><path d="M1904.920604 575.475327v136.875089l113.446019-93.716277z" fill="#377CB2" p-id="22516"></path><path d="M1886.42397 92.096634l-33.293941 165.236594 125.777109-144.273743z" fill="#99A1B0" p-id="22517"></path><path d="M1647.200841 95.79596l103.581149 29.594614 135.64198-33.29394z" fill="#9DAEBB" p-id="22518"></path><path d="M367.233792 110.593267l173.868356 6.165545 215.79406-22.195961z" fill="#E1F3BD" p-id="22519"></path><path d="M1481.964247 1081.04998l-78.91897 35.760159 234.290693-44.391921z" fill="#225A98" p-id="22520"></path><path d="M1764.346188 818.397782l18.496633 172.635248 96.182495-13.564198z" fill="#2457A4" p-id="22521"></path><path d="M1750.78199 125.390574l102.348039 131.942654 33.293941-165.236594z" fill="#99A6B2" p-id="22522"></path><path d="M1764.346188 818.397782l114.679128 159.07105 22.195961-136.875089z" fill="#235CA7" p-id="22523"></path><path d="M1764.346188 818.397782l136.875089 22.195961 3.699327-128.243327z" fill="#256AAE" p-id="22524"></path><path d="M1737.217792 743.178139l27.128396 75.219643 140.574416-106.047366z" fill="#2374B3" p-id="22525"></path><path d="M1723.653594 621.100356l13.564198 122.077783 167.702812-30.827723z" fill="#2B7FB6" p-id="22526"></path><path d="M1723.653594 621.100356l181.26701 91.25006V575.475327z" fill="#3482B5" p-id="22527"></path><path d="M1866.694227 486.691485l-143.040633 134.408871 181.26701-45.625029z" fill="#438BB5" p-id="22528"></path><path d="M1750.78199 125.390574l-11.09798 112.212911 113.446019 19.729743z" fill="#95A8B1" p-id="22529"></path><path d="M1735.984683 379.41101l1.233109 96.182495 129.476435 11.09798z" fill="#5F98B3" p-id="22530"></path><path d="M1737.217792 475.593505l-13.564198 145.506851 143.040633-134.408871z" fill="#4B91B6" p-id="22531"></path><path d="M1782.842821 991.03303l86.317624 82.618297 9.864871-96.182495z" fill="#26479D" p-id="22532"></path><path d="M1735.984683 379.41101l130.709544 107.280475 16.030416-117.145346z" fill="#6A97B1" p-id="22533"></path><path d="M1853.130029 257.333228l-117.145346 122.077782 146.73996-9.864871z" fill="#7F9EB0" p-id="22534"></path><path d="M1739.68401 237.603485l-3.699327 141.807525 117.145346-122.077782z" fill="#89A5B1" p-id="22535"></path><path d="M1782.842821 991.03303l-12.331089 117.145346 98.648713-34.527049z" fill="#214694" p-id="22536"></path><path d="M1655.832604 496.556356l67.82099 124.544 13.564198-145.506851z" fill="#4A98B9" p-id="22537"></path><path d="M1658.298821 360.914376l77.685862 18.496634 3.699327-141.807525z" fill="#83A9B4" p-id="22538"></path><path d="M1617.606227 840.593743l-16.030415 108.513584 162.770376-130.709545z" fill="#236BAF" p-id="22539"></path><path d="M1764.346188 818.397782l-162.770376 130.709545 181.267009 41.925703z" fill="#255FA9" p-id="22540"></path><path d="M1637.33597 1072.418218l133.175762 35.760158 12.331089-117.145346z" fill="#234C98" p-id="22541"></path><path d="M1601.575812 949.107327l35.760158 123.310891 145.506851-81.385188z" fill="#2956A4" p-id="22542"></path><path d="M1655.832604 496.556356l-25.895288 80.15208 93.716278 44.39192z" fill="#4198BB" p-id="22543"></path><path d="M1647.200841 95.79596l92.483169 141.807525 11.09798-112.212911z" fill="#9BB1B7" p-id="22544"></path><path d="M1737.217792 743.178139l-119.611565 97.415604 146.739961-22.195961z" fill="#2374B2" p-id="22545"></path><path d="M1723.653594 621.100356l-104.814258 106.047367 118.378456 16.030416z" fill="#2986B9" p-id="22546"></path><path d="M1735.984683 379.41101l-77.685862-18.496634 78.918971 114.679129z" fill="#6DA2B5" p-id="22547"></path><path d="M1658.298821 360.914376l-2.466217 135.64198 81.385188-20.962851z" fill="#60A0B7" p-id="22548"></path><path d="M1608.974465 240.069703l49.324356 120.844673 81.385189-123.310891z" fill="#8BAFB5" p-id="22549"></path><path d="M1647.200841 95.79596l-38.226376 144.273743 130.709545-2.466218z" fill="#99B4B5" p-id="22550"></path><path d="M1618.839336 727.147723l-1.233109 113.44602 119.611565-97.415604z" fill="#227EB7" p-id="22551"></path><path d="M1629.937316 576.708436l-11.09798 150.439287 104.814258-106.047367z" fill="#3091BC" p-id="22552"></path><path d="M1506.626425 584.107089l112.212911 143.040634 11.09798-150.439287z" fill="#3098BF" p-id="22553"></path><path d="M1490.59601 80.998653l118.378455 159.07105 38.226376-144.273743z" fill="#9EBDBD" p-id="22554"></path><path d="M1480.731138 379.41101l2.466218 110.979802 172.635248 6.165544z" fill="#5CACBD" p-id="22555"></path><path d="M1480.731138 379.41101l175.101466 117.145346 2.466217-135.64198z" fill="#6BABBA" p-id="22556"></path><path d="M1608.974465 240.069703L1480.731138 379.41101l177.567683-18.496634z" fill="#84B4B8" p-id="22557"></path><path d="M1483.197356 490.390812l146.73996 86.317624 25.895288-80.15208z" fill="#4CA2BD" p-id="22558"></path><path d="M1490.59601 243.76903l-9.864872 135.64198 128.243327-139.341307z" fill="#8CBCBA" p-id="22559"></path><path d="M1483.197356 490.390812l23.429069 93.716277 123.310891-7.398653z" fill="#44A4BF" p-id="22560"></path><path d="M1601.575812 949.107327l-119.611565 131.942653 155.371723-8.631762z" fill="#295BA3" p-id="22561"></path><path d="M1490.59601 80.998653v162.770377l118.378455-3.699327z" fill="#9BC0B9" p-id="22562"></path><path d="M1517.724406 822.097109l99.881821 18.496634 1.233109-113.44602z" fill="#227FB8" p-id="22563"></path><path d="M1506.626425 584.107089l-20.962851 150.439287 133.175762-7.398653z" fill="#2895C0" p-id="22564"></path><path d="M1517.724406 822.097109l-18.496634 115.912238 102.34804 11.09798z" fill="#2570B1" p-id="22565"></path><path d="M1499.227772 938.009347l-17.263525 143.040633 119.611565-131.942653z" fill="#2B64AB" p-id="22566"></path><path d="M1517.724406 822.097109l83.851406 127.010218 16.030415-108.513584z" fill="#2372B2" p-id="22567"></path><path d="M1485.663574 734.546376l32.060832 87.550733 101.11493-94.949386z" fill="#2089BD" p-id="22568"></path><path d="M1410.44393 330.086653l70.287208 49.324357 9.864872-135.64198z" fill="#89BEBC" p-id="22569"></path><path d="M1490.59601 80.998653L1404.278386 216.640634l86.317624 27.128396z" fill="#9EC5BB" p-id="22570"></path><path d="M1358.653356 983.634376l123.310891 97.415604 17.263525-143.040633z" fill="#2F67AC" p-id="22571"></path><path d="M1374.683772 730.84705l110.979802 3.699326 20.962851-150.439287z" fill="#2B9BC2" p-id="22572"></path><path d="M1354.954029 585.340198l19.729743 145.506852 131.942653-146.739961z" fill="#34A4C2" p-id="22573"></path><path d="M1406.744604 866.48903l92.483168 71.520317 18.496634-115.912238z" fill="#2679B4" p-id="22574"></path><path d="M1485.663574 734.546376l-78.91897 131.942654 110.979802-44.391921z" fill="#2486BB" p-id="22575"></path><path d="M915.967257 1071.185109l-145.506851 22.19596 267.584633-12.331089z" fill="#53769A" p-id="22576"></path><path d="M1480.731138 379.41101l-119.611564 78.91897 122.077782 32.060832z" fill="#63B4BE" p-id="22577"></path><path d="M1374.683772 730.84705l32.060832 135.64198 78.91897-131.942654z" fill="#278EBD" p-id="22578"></path><path d="M1370.984445 84.69798l33.293941 131.942654 86.317624-135.641981z" fill="#A2CAC2" p-id="22579"></path><path d="M1483.197356 490.390812l-128.243327 94.949386 151.672396-1.233109z" fill="#44AAC1" p-id="22580"></path><path d="M1406.744604 866.48903l-48.091248 117.145346 140.574416-45.625029z" fill="#2D74B1" p-id="22581"></path><path d="M1358.653356 983.634376l44.391921 133.175763 78.91897-35.760159z" fill="#2C63A0" p-id="22582"></path><path d="M1404.278386 216.640634l6.165544 113.446019 80.15208-86.317623z" fill="#92C3BB" p-id="22583"></path><path d="M1361.119574 458.32998l-6.165545 127.010218 128.243327-94.949386z" fill="#51B1C0" p-id="22584"></path><path d="M1410.44393 330.086653l-49.324356 128.243327 119.611564-78.91897z" fill="#75BBBD" p-id="22585"></path><path d="M1358.653356 983.634376l-97.415604 134.408872 141.807525-1.233109z" fill="#30669E" p-id="22586"></path><path d="M1370.984445 84.69798l-81.385188 113.44602 114.679129 18.496634z" fill="#A2CDBD" p-id="22587"></path><path d="M1374.683772 730.84705l-85.084515 110.979801 117.145347 24.662179z" fill="#2D8CBB" p-id="22588"></path><path d="M1289.599257 841.826851l69.054099 141.807525 48.091248-117.145346z" fill="#307CB4" p-id="22589"></path><path d="M1258.771534 331.319762l102.34804 127.010218 49.324356-128.243327z" fill="#7CC0BD" p-id="22590"></path><path d="M1404.278386 216.640634l-114.679129-18.496634 120.844673 131.942653z" fill="#96C8BC" p-id="22591"></path><path d="M1289.599257 198.144L1258.771534 331.319762l151.672396-1.233109z" fill="#91C9BC" p-id="22592"></path><path d="M1287.133039 743.178139l2.466218 98.648712 85.084515-110.979801z" fill="#2D96BF" p-id="22593"></path><path d="M1354.954029 585.340198l-67.82099 157.837941 87.550733-12.331089z" fill="#31A1C2" p-id="22594"></path><path d="M1107.099138 1072.418218l-69.054099 8.631762 223.192713 36.993268z" fill="#3C6E9A" p-id="22595"></path><path d="M1248.906663 589.039525l38.226376 154.138614 67.82099-157.837941z" fill="#39AAC3" p-id="22596"></path><path d="M1289.599257 841.826851l-19.729742 135.641981 88.783841 6.165544z" fill="#357AB1" p-id="22597"></path><path d="M1269.869515 977.468832l-8.631763 140.574416 97.415604-134.408872z" fill="#376DA9" p-id="22598"></path><path d="M1258.771534 331.319762l-27.128396 114.679129 129.476436 12.331089z" fill="#72C1BE" p-id="22599"></path><path d="M1248.906663 589.039525l106.047366-3.699327 6.165545-127.010218z" fill="#4CB3C2" p-id="22600"></path><path d="M1231.643138 445.998891l17.263525 143.040634 112.212911-130.709545z" fill="#59B9C1" p-id="22601"></path><path d="M1245.207336 83.464871l44.391921 114.679129 81.385188-113.44602z" fill="#A6D1C3" p-id="22602"></path><path d="M388.196643 1074.884436l-246.621782 22.19596 361.300911-11.09798z" fill="#888796" p-id="22603"></path><path d="M1004.751099 98.262178l123.310891 35.760159 117.145346-50.557466z" fill="#AEDBC5" p-id="22604"></path><path d="M1231.643138 445.998891l-90.01695 54.256792 107.280475 88.783842z" fill="#58BCC2" p-id="22605"></path><path d="M1107.099138 1072.418218l154.138614 45.62503 8.631763-140.574416z" fill="#396EA3" p-id="22606"></path><path d="M1248.906663 589.039525l-113.44602 28.361505 151.672396 125.777109z" fill="#3BADC4" p-id="22607"></path><path d="M1135.460643 617.40103l-18.496633 112.212911 170.169029 13.564198z" fill="#3AA9C2" p-id="22608"></path><path d="M1116.96401 729.613941l-3.699327 103.581148 173.868356-90.01695z" fill="#389EBF" p-id="22609"></path><path d="M1245.207336 83.464871l-117.145346 50.557466 161.537267 64.121663z" fill="#A7D6C1" p-id="22610"></path><path d="M1128.06199 134.022337l36.993267 117.145346 124.544-53.023683z" fill="#A4D6BC" p-id="22611"></path><path d="M1165.055257 251.167683l93.716277 80.152079 30.827723-133.175762z" fill="#99D0BC" p-id="22612"></path><path d="M1132.994425 952.806653l136.87509 24.662179 19.729742-135.641981z" fill="#397FB3" p-id="22613"></path><path d="M1113.264683 833.195089l19.729742 119.611564 156.604832-110.979802z" fill="#3A89B6" p-id="22614"></path><path d="M1287.133039 743.178139l-173.868356 90.01695 176.334574 8.631762z" fill="#3494BC" p-id="22615"></path><path d="M1160.122821 358.448158l71.520317 87.550733 27.128396-114.679129z" fill="#7EC8BE" p-id="22616"></path><path d="M1132.994425 952.806653l-25.895287 119.611565 162.770377-94.949386z" fill="#4277AD" p-id="22617"></path><path d="M1165.055257 251.167683l-4.932436 107.280475 98.648713-27.128396z" fill="#91D0BD" p-id="22618"></path><path d="M1141.626188 500.255683l-6.165545 117.145347 113.44602-28.361505z" fill="#4CB9C3" p-id="22619"></path><path d="M1160.122821 358.448158l-18.496633 141.807525 90.01695-54.256792z" fill="#6FC5BF" p-id="22620"></path><path d="M137.875534 82.231762l136.875089 24.662179 92.483169 3.699326z" fill="#F3FABE" p-id="22621"></path><path d="M258.720208 1077.350653l-117.145347 19.729743 246.621782-22.19596z" fill="#8D8896" p-id="22622"></path><path d="M756.896208 94.562851l145.506851 28.361505 102.34804-24.662178z" fill="#BFE5C1" p-id="22623"></path><path d="M1042.977475 198.144L982.555138 372.012356l177.567683-13.564198z" fill="#9BD5BA" p-id="22624"></path><path d="M1020.781515 450.931327l120.844673 49.324356 18.496633-141.807525z" fill="#74C7BE" p-id="22625"></path><path d="M1042.977475 198.144l117.145346 160.304158 4.932436-107.280475z" fill="#9DD5BB" p-id="22626"></path><path d="M1128.06199 134.022337l-85.084515 64.121663 122.077782 53.023683z" fill="#AAD9BA" p-id="22627"></path><path d="M1012.149752 602.603723l123.310891 14.797307 6.165545-117.145347z" fill="#55BCC2" p-id="22628"></path><path d="M982.555138 372.012356l38.226377 78.918971 139.341306-92.483169z" fill="#85CDBC" p-id="22629"></path><path d="M1012.149752 602.603723l-11.09798 124.544 115.912238 2.466218z" fill="#4EAFC1" p-id="22630"></path><path d="M996.119336 978.701941l110.979802 93.716277 25.895287-119.611565z" fill="#4C7AAC" p-id="22631"></path><path d="M1113.264683 833.195089l-96.182495 7.398654 115.912237 112.21291z" fill="#468DB5" p-id="22632"></path><path d="M1012.149752 602.603723l104.814258 127.010218 18.496633-112.212911z" fill="#4CB3C2" p-id="22633"></path><path d="M1020.781515 450.931327l-8.631763 151.672396 129.476436-102.34804z" fill="#66C1C0" p-id="22634"></path><path d="M996.119336 978.701941l41.925703 102.348039 69.054099-8.631762z" fill="#4B75A4" p-id="22635"></path><path d="M1017.082188 840.593743l96.182495-7.398654 3.699327-103.581148z" fill="#469BBB" p-id="22636"></path><path d="M1017.082188 840.593743l-20.962852 138.108198 136.875089-25.895288z" fill="#4D86B1" p-id="22637"></path><path d="M1001.051772 727.147723l16.030416 113.44602 99.881822-110.979802z" fill="#4AA3BE" p-id="22638"></path><path d="M1004.751099 98.262178l38.226376 99.881822 85.084515-64.121663z" fill="#B1DDBF" p-id="22639"></path><path d="M541.102148 116.758812l81.385188 2.466218 134.408872-24.662179z" fill="#D8F0BD" p-id="22640"></path><path d="M908.568604 868.955248l87.550732 109.746693 20.962852-138.108198z" fill="#538EB2" p-id="22641"></path><path d="M907.335495 610.002376l104.814257-7.398653 8.631763-151.672396z" fill="#65C1C0" p-id="22642"></path><path d="M860.477356 491.623921l46.858139 118.378455 113.44602-159.071049z" fill="#71C6BE" p-id="22643"></path><path d="M996.119336 978.701941l-80.152079 92.483168 122.077782 9.864871z" fill="#5278A3" p-id="22644"></path><path d="M886.372643 245.002139l96.182495 127.010217 60.422337-173.868356z" fill="#A7DAB8" p-id="22645"></path><path d="M1004.751099 98.262178l-102.34804 24.662178 140.574416 75.219644z" fill="#B7E0BE" p-id="22646"></path><path d="M902.403059 122.924356l-16.030416 122.077783 156.604832-46.858139z" fill="#B5E0B8" p-id="22647"></path><path d="M907.335495 610.002376l93.716277 117.145347 11.09798-124.544z" fill="#58B8C1" p-id="22648"></path><path d="M886.372643 245.002139l-8.631762 99.881821 104.814257 27.128396z" fill="#A3DAB8" p-id="22649"></path><path d="M869.109118 727.147723l39.459486 141.807525 92.483168-141.807525z" fill="#57A6BB" p-id="22650"></path><path d="M1001.051772 727.147723l-92.483168 141.807525 108.513584-28.361505z" fill="#529DB9" p-id="22651"></path><path d="M982.555138 372.012356l-122.077782 119.611565 160.304159-40.692594z" fill="#80CCBC" p-id="22652"></path><path d="M907.335495 610.002376l-38.226377 117.145347h131.942654z" fill="#5AB4BF" p-id="22653"></path><path d="M891.305079 992.266139l24.662178 78.91897 80.152079-92.483168z" fill="#5A7CA9" p-id="22654"></path><path d="M908.568604 868.955248l-17.263525 123.310891 104.814257-13.564198z" fill="#5987AE" p-id="22655"></path><path d="M877.740881 344.88396l-17.263525 146.739961 122.077782-119.611565z" fill="#8ED2BA" p-id="22656"></path><path d="M616.321792 1062.553347l-113.44602 23.429069 267.584634 7.398653z" fill="#758197" p-id="22657"></path><path d="M765.52797 452.164436l94.949386 39.459485 17.263525-146.739961z" fill="#8FD3BA" p-id="22658"></path><path d="M796.355693 844.293069l-55.489901 94.949386 150.439287 53.023684z" fill="#688FAE" p-id="22659"></path><path d="M756.896208 94.562851L886.372643 245.002139l16.030416-122.077783z" fill="#C0E5BA" p-id="22660"></path><path d="M750.730663 617.40103l118.378455 109.746693 38.226377-117.145347z" fill="#68BCBF" p-id="22661"></path><path d="M796.355693 844.293069l94.949386 147.97307 17.263525-123.310891z" fill="#5F90B0" p-id="22662"></path><path d="M869.109118 727.147723l-72.753425 117.145346 112.212911 24.662179z" fill="#60A1B7" p-id="22663"></path><path d="M891.305079 992.266139l-120.844673 101.11493 145.506851-22.19596z" fill="#5D7BA0" p-id="22664"></path><path d="M756.896208 94.562851l-4.932436 157.837941 134.408871-7.398653z" fill="#C1E5B5" p-id="22665"></path><path d="M860.477356 491.623921l-109.746693 125.777109 156.604832-7.398654z" fill="#71C6BE" p-id="22666"></path><path d="M755.663099 368.31303l9.864871 83.851406 112.212911-107.280476z" fill="#9ED8B9" p-id="22667"></path><path d="M750.730663 617.40103l-3.699327 99.881821 122.077782 9.864872z" fill="#6EB9BE" p-id="22668"></path><path d="M751.963772 252.400792l125.777109 92.483168 8.631762-99.881821z" fill="#B1DFB7" p-id="22669"></path><path d="M740.865792 939.242455l29.594614 154.138614 120.844673-101.11493z" fill="#6982A9" p-id="22670"></path><path d="M751.963772 252.400792l3.699327 115.912238 122.077782-23.42907z" fill="#AFDFB7" p-id="22671"></path><path d="M747.031336 717.282851l49.324357 127.010218 72.753425-117.145346z" fill="#68ADBB" p-id="22672"></path><path d="M765.52797 452.164436l-14.797307 165.236594 109.746693-125.777109z" fill="#82CCBC" p-id="22673"></path><path d="M661.946821 237.603485l90.016951 14.797307 4.932436-157.837941z" fill="#C9E9B4" p-id="22674"></path><path d="M622.487336 566.843564l128.243327 50.557466 14.797307-165.236594z" fill="#87CEBC" p-id="22675"></path><path d="M628.652881 479.292832l-6.165545 87.550732 143.040634-114.679128z" fill="#94D3BA" p-id="22676"></path><path d="M740.865792 939.242455L616.321792 1062.553347l154.138614 30.827722z" fill="#7283A3" p-id="22677"></path><path d="M747.031336 717.282851l-101.11493 141.807525 150.439287-14.797307z" fill="#73A8B7" p-id="22678"></path><path d="M645.916406 859.090376l94.949386 80.152079 55.489901-94.949386z" fill="#7299B1" p-id="22679"></path><path d="M616.321792 986.100594v76.452753l124.544-123.310892z" fill="#7B8AA9" p-id="22680"></path><path d="M661.946821 237.603485l6.165545 140.574416 83.851406-125.777109z" fill="#C0E5B5" p-id="22681"></path><path d="M751.963772 252.400792L668.112366 378.177901l87.550733-9.864871z" fill="#B5E1B6" p-id="22682"></path><path d="M622.487336 119.22503l39.459485 118.378455 94.949387-143.040634z" fill="#D2EDB8" p-id="22683"></path><path d="M755.663099 368.31303l-87.550733 9.864871 97.415604 73.986535z" fill="#A4DAB8" p-id="22684"></path><path d="M622.487336 696.32l124.544 20.962851 3.699327-99.881821z" fill="#7ABFBD" p-id="22685"></path><path d="M668.112366 378.177901l-39.459485 101.114931 136.875089-27.128396z" fill="#9FD8B9" p-id="22686"></path><path d="M622.487336 696.32l23.42907 162.770376 101.11493-141.807525z" fill="#7BB4BA" p-id="22687"></path><path d="M622.487336 566.843564v129.476436l128.243327-78.91897z" fill="#83C7BD" p-id="22688"></path><path d="M645.916406 859.090376l-29.594614 127.010218 124.544-46.858139z" fill="#7994AD" p-id="22689"></path><path d="M622.487336 696.32l-78.91897 23.429069 102.34804 139.341307z" fill="#83B6BA" p-id="22690"></path><path d="M543.568366 719.749069l-27.128396 96.182495 129.476436 43.158812z" fill="#87B0B6" p-id="22691"></path><path d="M622.487336 119.22503l-76.452752 88.783841 115.912237 29.594614z" fill="#D6EEB3" p-id="22692"></path><path d="M546.034584 208.008871L521.372406 365.846812 661.946821 237.603485z" fill="#CFEBB4" p-id="22693"></path><path d="M661.946821 237.603485L521.372406 365.846812l146.73996 12.331089z" fill="#C2E7B5" p-id="22694"></path><path d="M521.372406 365.846812l107.280475 113.44602 39.459485-101.114931z" fill="#AFDFB7" p-id="22695"></path><path d="M537.402821 970.070178l78.918971 16.030416 29.594614-127.010218z" fill="#8295AC" p-id="22696"></path><path d="M516.43997 593.97196l106.047366 102.34804V566.843564z" fill="#8ECCBC" p-id="22697"></path><path d="M516.43997 815.931564l20.962851 154.138614 108.513585-110.979802z" fill="#85A0B0" p-id="22698"></path><path d="M537.402821 970.070178l78.918971 92.483169v-76.452753z" fill="#828AA7" p-id="22699"></path><path d="M516.43997 593.97196l27.128396 125.777109 78.91897-23.429069z" fill="#8DC6BC" p-id="22700"></path><path d="M541.102148 116.758812l4.932436 91.250059 76.452752-88.783841z" fill="#DDF2B8" p-id="22701"></path><path d="M531.237277 503.95501l91.250059 62.888554 6.165545-87.550732z" fill="#9BD5BA" p-id="22702"></path><path d="M521.372406 365.846812l9.864871 138.108198 97.415604-24.662178z" fill="#A9DCB8" p-id="22703"></path><path d="M531.237277 503.95501l-14.797307 90.01695 106.047366-27.128396z" fill="#98D3BB" p-id="22704"></path><path d="M537.402821 970.070178l-34.527049 115.912238 113.44602-23.429069z" fill="#8287A1" p-id="22705"></path><path d="M425.189911 219.106851L411.625713 370.779248l109.746693-4.932436z" fill="#CFECB4" p-id="22706"></path><path d="M521.372406 365.846812l-109.746693 4.932436 119.611564 133.175762z" fill="#B7E2B6" p-id="22707"></path><path d="M411.625713 370.779248l-40.692595 124.544 160.304159 8.631762z" fill="#AFDEB7" p-id="22708"></path><path d="M516.43997 815.931564l-102.34804 120.844674 123.310891 33.29394z" fill="#8A9CAD" p-id="22709"></path><path d="M414.09193 936.776238l88.783842 149.206178 34.527049-115.912238z" fill="#8A8EA7" p-id="22710"></path><path d="M516.43997 593.97196l-90.016951 122.077783 117.145347 3.699326z" fill="#91C6BC" p-id="22711"></path><path d="M426.423019 716.049743l90.016951 99.881821 27.128396-96.182495z" fill="#8DBBBA" p-id="22712"></path><path d="M541.102148 116.758812l-115.912237 102.348039 120.844673-11.09798z" fill="#DFF3B2" p-id="22713"></path><path d="M425.189911 219.106851l96.182495 146.739961 24.662178-157.837941z" fill="#D5EEB3" p-id="22714"></path><path d="M396.828406 624.799683l29.594613 91.25006 90.016951-122.077783z" fill="#97CCBC" p-id="22715"></path><path d="M367.233792 110.593267l57.956119 108.513584 115.912237-102.348039z" fill="#E5F5B6" p-id="22716"></path><path d="M414.09193 936.776238l-25.895287 138.108198 114.679129 11.09798z" fill="#8A8BA2" p-id="22717"></path><path d="M370.933118 495.323248l145.506852 98.648712 14.797307-90.01695z" fill="#A2D7BA" p-id="22718"></path><path d="M386.963534 813.465347l27.128396 123.310891 102.34804-120.844674z" fill="#8EA7B1" p-id="22719"></path><path d="M426.423019 716.049743l-39.459485 97.415604 129.476436 2.466217z" fill="#90B6B7" p-id="22720"></path><path d="M370.933118 495.323248l25.895288 129.476435 119.611564-30.827723z" fill="#9FD5BB" p-id="22721"></path><path d="M303.112128 352.282614l67.82099 143.040634 40.692595-124.544z" fill="#C1E6B6" p-id="22722"></path><path d="M243.922901 977.468832l144.273742 97.415604 25.895287-138.108198z" fill="#9391A8" p-id="22723"></path><path d="M367.233792 110.593267L285.848604 199.377109l139.341307 19.729742z" fill="#E9F6B2" p-id="22724"></path><path d="M303.112128 352.282614l108.513585 18.496634 13.564198-151.672397z" fill="#D5EEB3" p-id="22725"></path><path d="M285.848604 199.377109L303.112128 352.282614l122.077783-133.175763z" fill="#DFF2B3" p-id="22726"></path><path d="M396.828406 624.799683L251.321554 749.343683l175.101465-33.29394z" fill="#9AC6BB" p-id="22727"></path><path d="M251.321554 749.343683l135.64198 64.121664 39.459485-97.415604z" fill="#96BCB9" p-id="22728"></path><path d="M370.933118 495.323248l-83.851405 4.932435 109.746693 124.544z" fill="#A9D9BA" p-id="22729"></path><path d="M287.081713 500.255683l-35.760159 87.550733 145.506852 36.993267z" fill="#A7D8BA" p-id="22730"></path><path d="M386.963534 813.465347l-131.942653 9.864871 159.071049 113.44602z" fill="#94A8B1" p-id="22731"></path><path d="M255.020881 823.330218l-11.09798 154.138614 170.169029-40.692594z" fill="#96A0AD" p-id="22732"></path><path d="M303.112128 352.282614L287.081713 500.255683l83.851405-4.932435z" fill="#B9E2B6" p-id="22733"></path><path d="M243.922901 977.468832l14.797307 99.881821 129.476435-2.466217z" fill="#918C9F" p-id="22734"></path><path d="M251.321554 587.806416v161.537267l145.506852-124.544z" fill="#A0CEBB" p-id="22735"></path><path d="M251.321554 749.343683l3.699327 73.986535 131.942653-9.864871z" fill="#99B6B6" p-id="22736"></path><path d="M274.750623 106.893941l11.097981 92.483168 81.385188-88.783842z" fill="#EEF8B7" p-id="22737"></path><path d="M165.00393 732.080158l86.317624 17.263525V587.806416z" fill="#A1CABE" p-id="22738"></path><path d="M139.108643 196.910891l30.827723 170.16903L285.848604 199.377109z" fill="#E6F5B7" p-id="22739"></path><path d="M169.936366 367.079921l-6.165545 123.310891 123.310892 9.864871z" fill="#BDE4BB" p-id="22740"></path><path d="M169.936366 367.079921l117.145347 133.175762L303.112128 352.282614z" fill="#C7E8B7" p-id="22741"></path><path d="M285.848604 199.377109L169.936366 367.079921 303.112128 352.282614z" fill="#DDF2B4" p-id="22742"></path><path d="M144.041079 833.195089l14.797307 143.040634 85.084515 1.233109z" fill="#999FB1" p-id="22743"></path><path d="M137.875534 605.069941l27.128396 127.010217 86.317624-144.273742z" fill="#A5D1C1" p-id="22744"></path><path d="M144.041079 833.195089l99.881822 144.273743 11.09798-154.138614z" fill="#9AA7B3" p-id="22745"></path><path d="M274.750623 106.893941L139.108643 196.910891l146.739961 2.466218z" fill="#EFF9B6" p-id="22746"></path><path d="M163.770821 490.390812l87.550733 97.415604 35.760159-87.550733z" fill="#B1DDBB" p-id="22747"></path><path d="M137.875534 82.231762l1.233109 114.679129 135.64198-90.01695z" fill="#F3FBBE" p-id="22748"></path><path d="M163.770821 490.390812l-25.895287 114.679129 113.44602-17.263525z" fill="#ADDBC0" p-id="22749"></path><path d="M251.321554 749.343683l-86.317624-17.263525 90.016951 91.25006z" fill="#9DBDBB" p-id="22750"></path><path d="M165.00393 732.080158l-20.962851 101.114931 110.979802-9.864871z" fill="#9DB8BB" p-id="22751"></path><path d="M243.922901 977.468832l-85.084515-1.233109 99.881822 101.11493z" fill="#9891AA" p-id="22752"></path><path d="M158.838386 976.235723l-17.263525 120.844673 117.145347-19.729743z" fill="#938DA3" p-id="22753"></path><path d="M144.041079 833.195089l-103.581149 122.077782 118.378456 20.962852z" fill="#9BA1B6" p-id="22754"></path><path d="M40.45993 955.272871l101.114931 141.807525 17.263525-120.844673z" fill="#9B92B0" p-id="22755"></path><path d="M55.257237 478.059723l82.618297 127.010218 25.895287-114.679129z" fill="#B4DFC2" p-id="22756"></path><path d="M35.527495 723.448396l108.513584 109.746693 20.962851-101.114931z" fill="#9FBFC2" p-id="22757"></path><path d="M137.875534 605.069941l-102.348039 118.378455 129.476435 8.631762z" fill="#A4CCC5" p-id="22758"></path><path d="M139.108643 196.910891l-87.550732 20.962852 118.378455 149.206178z" fill="#E7F5BC" p-id="22759"></path><path d="M51.557911 217.873743l-24.662179 135.64198 143.040634 13.564198z" fill="#E1F3BF" p-id="22760"></path><path d="M55.257237 478.059723l108.513584 12.331089 6.165545-123.310891z" fill="#C1E6BF" p-id="22761"></path><path d="M26.895732 353.515723l28.361505 124.544 114.679129-110.979802z" fill="#CDEBC1" p-id="22762"></path><path d="M55.257237 478.059723l-25.895287 110.979802 108.513584 16.030416z" fill="#B1DDC6" p-id="22763"></path><path d="M-2.698882 130.32301l54.256793 87.550733 86.317623-135.641981z" fill="#F6FCC4" p-id="22764"></path><path d="M137.875534 82.231762l-86.317623 135.641981 87.550732-20.962852z" fill="#F3FBBE" p-id="22765"></path><path d="M40.45993 955.272871l-41.925703 146.739961 143.040634-4.932436z" fill="#968EAA" p-id="22766"></path><path d="M29.36195 589.039525l6.165545 134.408871 102.348039-118.378455z" fill="#A8D3C8" p-id="22767"></path><path d="M9.632208 822.097109l30.827722 133.175762 103.581149-122.077782z" fill="#9DAABC" p-id="22768"></path><path d="M35.527495 723.448396l-25.895287 98.648713 134.408871 11.09798z" fill="#9FBAC2" p-id="22769"></path><path d="M-2.698882 130.32301l29.594614 223.192713 24.662179-135.64198z" fill="#EEF8C1" p-id="22770"></path><path d="M26.895732 353.515723l2.466218 235.523802 25.895287-110.979802z" fill="#BEE4C6" p-id="22771"></path><path d="M9.632208 822.097109l-11.097981 279.915723 41.925703-146.739961z" fill="#9D9CB9" p-id="22772"></path><path d="M29.36195 589.039525l-19.729742 233.057584 25.895287-98.648713z" fill="#A4CACA" p-id="22773"></path><path d="M26.895732 353.515723l-29.594614-223.192713 32.060832 458.716515z" fill="#D9F0C4" p-id="22774"></path><path d="M-2.698882 130.32301l12.33109 691.774099 19.729742-233.057584z" fill="#B8E1C9" p-id="22775"></path><path d="M-2.698882 130.32301l1.233109 971.689822 11.097981-279.915723z" fill="#A6CDCC" p-id="22776"></path></svg>